<?xml version="1.0" encoding="UTF-8" standalone="no" ?>
<!DOCTYPE svg PUBLIC "-//W3C//DTD SVG 1.1//EN" "http://www.w3.org/Graphics/SVG/1.1/DTD/svg11.dtd">
<svg xmlns="http://www.w3.org/2000/svg" xmlns:xlink="http://www.w3.org/1999/xlink" version="1.1" width="100" height="100" viewBox="0 0 500 500" xml:space="preserve">
<desc>Created with Fabric.js 5.3.0</desc>
<defs>
</defs>
<g transform="matrix(1.9482850355 0 0 0.2435356294 250 137.5)" id="ITCRDyqVJ05kWATEX1bVp"  >
<path style="stroke: rgb(110,64,35); stroke-width: 0; stroke-dasharray: none; stroke-linecap: butt; stroke-dashoffset: 0; stroke-linejoin: miter; stroke-miterlimit: 4; fill: rgb(0,0,0); fill-rule: nonzero; opacity: 1;"  transform=" translate(0, 0)" d="M -102.65438 -98.54821 C -102.65438 -100.81599 -102.42458 -102.65438999999999 -102.14111 -102.65438999999999 L 102.65439 -102.65438999999999 L 102.65439 98.5482 L 102.65439 98.5482 C 102.65439 100.81598 102.42459000000001 102.65437999999999 102.14112 102.65437999999999 L -102.65438 102.65437999999999 z" stroke-linecap="round" />
</g>
<g transform="matrix(1.5829815914 0 0 0.2435356294 287.5 250)" id="BFjsZgyzUmkdHC2_hXwqN"  >
<path style="stroke: rgb(110,64,35); stroke-width: 0; stroke-dasharray: none; stroke-linecap: butt; stroke-dashoffset: 0; stroke-linejoin: miter; stroke-miterlimit: 4; fill: rgb(0,0,0); fill-rule: nonzero; opacity: 1;"  transform=" translate(0, 0)" d="M -102.65438 -102.62359 C -102.65438 -102.64059999999999 -102.65226 -102.65438999999999 -102.64964 -102.65438999999999 L 102.65439 -102.65438999999999 L 102.65439 102.62358000000002 L 102.65439 102.62358000000002 C 102.65439 102.64059000000002 102.65227 102.65438000000002 102.64965000000001 102.65438000000002 L -102.65438 102.65438000000002 z" stroke-linecap="round" />
</g>
<g transform="matrix(1.2176781472 0 0 0.2435356294 325 362.5)" id="VUrOMLfKvwOY_SqFM53U5"  >
<path style="stroke: rgb(110,64,35); stroke-width: 0; stroke-dasharray: none; stroke-linecap: butt; stroke-dashoffset: 0; stroke-linejoin: miter; stroke-miterlimit: 4; fill: rgb(0,0,0); fill-rule: nonzero; opacity: 1;"  transform=" translate(0, 0)" d="M -102.65438 -102.63385 C -102.65438 -102.64519 -102.65254 -102.65437999999999 -102.65027 -102.65437999999999 L 102.65439 -102.65437999999999 L 102.65439 102.63386000000001 L 102.65439 102.63386000000001 C 102.65439 102.64520000000002 102.65255 102.65439 102.65028000000001 102.65439 L -102.65438 102.65439 z" stroke-linecap="round" />
</g>
</svg>